<svg height="152" viewBox="0 0 146 152" width="146" xmlns="http://www.w3.org/2000/svg" xmlns:xlink="http://www.w3.org/1999/xlink"><clipPath id="a"><path d="m0 0h146v152h-146z"/></clipPath><g clip-path="url(#a)"><ellipse cx="71" cy="71.5" fill="#0d223f" rx="71" ry="71.5" transform="translate(2 3)"/><path d="m0 0h109.92" fill="none" stroke="#029395" stroke-linecap="round" stroke-width="3" transform="translate(18.5 102.6)"/><g fill="#fff"><path d="m10.171 36.133a8.089 8.089 0 0 1 -4.221-1.053 6.985 6.985 0 0 1 -2.706-2.928 9.489 9.489 0 0 1 -.944-4.316 9.443 9.443 0 0 1 .952-4.342 7.071 7.071 0 0 1 2.712-2.923 8 8 0 0 1 4.185-1.053 8.283 8.283 0 0 1 3.664.765 6.136 6.136 0 0 1 2.487 2.147 6.339 6.339 0 0 1 1.01 3.248h-4.183a3.3 3.3 0 0 0 -.932-1.943 2.7 2.7 0 0 0 -1.972-.735 2.956 2.956 0 0 0 -1.8.56 3.617 3.617 0 0 0 -1.192 1.629 6.982 6.982 0 0 0 -.427 2.588 7.212 7.212 0 0 0 .422 2.619 3.6 3.6 0 0 0 1.192 1.645 2.96 2.96 0 0 0 1.8.566 2.94 2.94 0 0 0 1.369-.314 2.676 2.676 0 0 0 1.01-.917 3.506 3.506 0 0 0 .526-1.451h4.185a6.626 6.626 0 0 1 -.994 3.242 6.073 6.073 0 0 1 -2.451 2.184 8.13 8.13 0 0 1 -3.692.782zm12.962-9.617v9.3h-4.433v-21.452h4.309v8.2h.187a4.579 4.579 0 0 1 1.749-2.237 5.313 5.313 0 0 1 3.029-.812 5.655 5.655 0 0 1 2.909.728 4.968 4.968 0 0 1 1.936 2.085 6.97 6.97 0 0 1 .682 3.242v10.248h-4.435v-9.449a3.275 3.275 0 0 0 -.744-2.315 2.709 2.709 0 0 0 -2.108-.828 3.215 3.215 0 0 0 -1.6.388 2.7 2.7 0 0 0 -1.083 1.126 3.839 3.839 0 0 0 -.399 1.776zm19.624 9.617a8.089 8.089 0 0 1 -4.19-1.042 7.026 7.026 0 0 1 -2.722-2.912 9.4 9.4 0 0 1 -.958-4.342 9.448 9.448 0 0 1 .958-4.363 7.026 7.026 0 0 1 2.722-2.912 8.942 8.942 0 0 1 8.38 0 7.026 7.026 0 0 1 2.722 2.912 9.448 9.448 0 0 1 .958 4.363 9.4 9.4 0 0 1 -.958 4.342 7.026 7.026 0 0 1 -2.722 2.912 8.089 8.089 0 0 1 -4.191 1.042zm.021-3.457a2.731 2.731 0 0 0 1.842-.634 3.9 3.9 0 0 0 1.119-1.734 8.44 8.44 0 0 0 0-5.008 3.938 3.938 0 0 0 -1.119-1.739 2.717 2.717 0 0 0 -1.842-.639 2.792 2.792 0 0 0 -1.868.639 3.875 3.875 0 0 0 -1.136 1.739 8.44 8.44 0 0 0 0 5.008 3.838 3.838 0 0 0 1.135 1.734 2.807 2.807 0 0 0 1.868.634zm16.5 3.457a8.089 8.089 0 0 1 -4.19-1.042 7.026 7.026 0 0 1 -2.722-2.912 9.4 9.4 0 0 1 -.958-4.342 9.448 9.448 0 0 1 .958-4.363 7.026 7.026 0 0 1 2.722-2.912 8.942 8.942 0 0 1 8.38 0 7.026 7.026 0 0 1 2.722 2.912 9.448 9.448 0 0 1 .958 4.363 9.4 9.4 0 0 1 -.958 4.342 7.026 7.026 0 0 1 -2.722 2.912 8.089 8.089 0 0 1 -4.19 1.042zm.021-3.457a2.731 2.731 0 0 0 1.842-.634 3.9 3.9 0 0 0 1.119-1.734 8.439 8.439 0 0 0 0-5.008 3.938 3.938 0 0 0 -1.119-1.739 2.717 2.717 0 0 0 -1.842-.639 2.792 2.792 0 0 0 -1.868.639 3.874 3.874 0 0 0 -1.131 1.739 8.44 8.44 0 0 0 0 5.008 3.838 3.838 0 0 0 1.135 1.734 2.807 2.807 0 0 0 1.865.634zm22.58-8.36-4.06.251a2.154 2.154 0 0 0 -.448-.948 2.459 2.459 0 0 0 -.9-.681 3.149 3.149 0 0 0 -1.327-.257 3.263 3.263 0 0 0 -1.738.435 1.313 1.313 0 0 0 -.708 1.158 1.243 1.243 0 0 0 .458.974 3.623 3.623 0 0 0 1.572.639l2.894.587a7.153 7.153 0 0 1 3.477 1.55 3.661 3.661 0 0 1 1.145 2.808 4.417 4.417 0 0 1 -.921 2.776 6.019 6.019 0 0 1 -2.523 1.859 9.51 9.51 0 0 1 -3.68.665 8.562 8.562 0 0 1 -5.051-1.332 5.166 5.166 0 0 1 -2.2-3.64l4.362-.23a2.237 2.237 0 0 0 .958 1.482 4.04 4.04 0 0 0 3.825.052 1.384 1.384 0 0 0 .723-1.179 1.249 1.249 0 0 0 -.51-1 3.7 3.7 0 0 0 -1.541-.6l-2.769-.555a6.583 6.583 0 0 1 -3.482-1.634 4.059 4.059 0 0 1 -1.14-2.965 4.336 4.336 0 0 1 .838-2.671 5.32 5.32 0 0 1 2.367-1.735 9.627 9.627 0 0 1 3.576-.608 7.874 7.874 0 0 1 4.773 1.289 4.988 4.988 0 0 1 2.03 3.51z" transform="translate(13.699 31.175)"/><path d="m345.06 50.021 1.33 3.417a11.026 11.026 0 0 1 -6.994 2.6 8.221 8.221 0 1 1 -.243-16.434c4.04 0 7.334 2.665 7.738 7.38l-11.269 3.656a4.405 4.405 0 0 0 3.8 1.88 8.4 8.4 0 0 0 5.638-2.499zm-10.185-2.7 7.5-2.46a3.551 3.551 0 0 0 -3.192-1.776 4.373 4.373 0 0 0 -4.307 4.236z" transform="translate(-234.152 11.065)"/><path d="m22.648 45.782v9.318h-4.407v-8.764c0-1.7-.939-2.642-2.267-2.642-1.426 0-2.431 1.076-2.431 2.8v8.606h-4.443v-8.764c0-1.7-.907-2.642-2.236-2.642a2.507 2.507 0 0 0 -2.462 2.8v8.606h-4.402v-14.569l4.277-.521v1.76a5.119 5.119 0 0 1 4.114-1.89 4.629 4.629 0 0 1 4.115 2.152 5.869 5.869 0 0 1 4.763-2.152c3.431 0 5.379 2.314 5.379 5.902z" transform="translate(16.489 36.082)"/><path d="m225.862 19.855-4.662-6.877v6.877h-4.41v-19.855h4.41v11.379l4.5-6.358h5.088l-5.345 7.108 5.637 7.726z" transform="translate(-175.289 71.331)"/><path d="m344.41 49.545 1.269 3.26a10.522 10.522 0 0 1 -6.674 2.478 7.845 7.845 0 1 1 -.232-15.683c3.856 0 7 2.543 7.384 7.042l-10.757 3.489a4.2 4.2 0 0 0 3.63 1.794 8.021 8.021 0 0 0 5.38-2.38zm-9.719-2.577 7.16-2.348a3.389 3.389 0 0 0 -3.046-1.7 4.173 4.173 0 0 0 -4.114 4.048z" transform="translate(-276.18 36.329)"/><path d="m517.558 8.609v5.573a1.809 1.809 0 0 0 1.944 2.054 5.828 5.828 0 0 0 1.878-.391v3.715a7.561 7.561 0 0 1 -2.948.554c-3.5 0-5.281-2.09-5.281-5.381v-6.124h-1.781l.031-3.587h1.75v-5.022h4.406v5.022h3.822v3.587z" transform="translate(-435.882 71.331)"/><path d="m615.356 49.545 1.263 3.26a10.522 10.522 0 0 1 -6.674 2.478 7.845 7.845 0 1 1 -.227-15.683c3.856 0 7 2.543 7.384 7.042l-10.753 3.489a4.2 4.2 0 0 0 3.629 1.794 8.025 8.025 0 0 0 5.378-2.38zm-9.72-2.577 7.16-2.348a3.388 3.388 0 0 0 -3.046-1.7 4.175 4.175 0 0 0 -4.114 4.048z" transform="translate(-515.861 36.329)"/><path d="m739.66 47.435a7.856 7.856 0 0 1 8.1-7.825 9.876 9.876 0 0 1 3.887.813l-.615 3.814a6.42 6.42 0 0 0 -3.014-.848 4.044 4.044 0 1 0 .032 8.087 6.539 6.539 0 0 0 3.175-.914l.552 3.815a9.182 9.182 0 0 1 -3.985.913 7.87 7.87 0 0 1 -8.132-7.855z" transform="translate(-637.833 36.32)"/><path d="m871.888 10.76v9.1h-4.435v-8.54a2.56 2.56 0 0 0 -2.625-2.87 2.787 2.787 0 0 0 -2.819 3.033v8.378h-4.409v-19.861h4.406v6.521a5.609 5.609 0 0 1 4.374-1.89c3.467 0 5.508 2.38 5.508 6.129z" transform="translate(-742.166 71.331)"/></g></g></svg>