<?xml version="1.0" encoding="utf-8"?>
<!-- Generator: Adobe Illustrator 25.4.1, SVG Export Plug-In . SVG Version: 6.00 Build 0)  test-->
<svg version="1.1" id="Layer_1" xmlns="http://www.w3.org/2000/svg" xmlns:xlink="http://www.w3.org/1999/xlink" x="0px" y="0px"
	 viewBox="0 0 485.4 204.2" style="enable-background:new 0 0 485.4 204.2;" xml:space="preserve">
<style type="text/css">
	.st0{fill:#FFFFFF;stroke:#FFFFFF;stroke-width:8;stroke-miterlimit:10;}
	.st1{fill:#0D223F;}
	.st2{fill:#F7A800;}
	.st3{fill:#FFFFFF;}
	.st4{fill:#00A7E0;}
</style>
<g id="Layer_1-2">
	<circle class="st0" cx="111.4" cy="101.5" r="94.5"/>
	<path class="st1" d="M205.9,101.7c0,52.2-42.3,94.5-94.5,94.5s-94.5-42.3-94.5-94.5H205.9z"/>
	<path class="st2" d="M205.9,101.7c0-52.2-42.3-94.5-94.5-94.5s-94.5,42.3-94.5,94.5H205.9z"/>
	<path class="st3" d="M42.5,101.7c0-23.3,11.8-45,31.3-57.7l14.3,22C76,73.9,68.7,87.3,68.7,101.7"/>
	<path class="st3" d="M154.1,101.7c0-14.4-7.3-27.9-19.4-35.8l14.3-22c19.6,12.7,31.4,34.4,31.3,57.8"/>
	<rect x="98.3" y="28.2" class="st3" width="26.2" height="60"/>
	<path class="st4" d="M178.9,115.6c0.9-4.6,1.4-9.2,1.4-13.9h-26.2c0,4.7-0.8,9.4-2.3,13.9H178.9z"/>
	<path class="st4" d="M144.1,129.1c-5.2,6.2-12,10.8-19.7,13.3H167c3-4.1,5.6-8.6,7.6-13.3C174.6,129.1,144.1,129.1,144.1,129.1z"/>
	<path class="st4" d="M78.7,129.1H48.1c2,4.7,4.6,9.2,7.6,13.3h42.6C90.7,139.9,83.8,135.3,78.7,129.1z"/>
	<path class="st4" d="M68.8,155.8c25,19.7,60.3,19.7,85.3,0H68.8z"/>
	<path class="st4" d="M71,115.6c-1.5-4.5-2.3-9.1-2.3-13.9H42.5c0,4.7,0.5,9.3,1.4,13.9H71z"/>
	<path class="st3" d="M338.7,50.7v40.5h-19.3v-38c0-7.4-4.1-11.5-9.9-11.5c-6.2,0-10.6,4.7-10.6,12.2v37.4h-19.4V53.2
		c0-7.4-4-11.5-9.8-11.5c-6.2,0-10.8,4.7-10.8,12.2v37.4h-19.3V27.9l18.7-2.3v7.6c4.2-5.2,10.5-8.2,18-8.2c8.1,0,14.2,3.4,18,9.4
		c4.7-5.9,12-9.4,20.8-9.4C330.2,25.1,338.7,35.2,338.7,50.7z"/>
	<path class="st3" d="M388.7,91.2l-20.4-29.9v29.9H349V5h19.3v49.4L388,26.8h22.2l-23.3,30.9l24.6,33.6L388.7,91.2z"/>
	<path class="st3" d="M465.9,68.2l5.5,14.2c-8.2,6.9-18.5,10.7-29.2,10.8c-20.5,0-35.7-14.9-35.7-34S421.4,25,441.2,25
		c16.9,0,30.6,11,32.3,30.6l-47,15.1c3.3,4.8,8.8,7.8,15.9,7.8C449.7,78.5,457.7,75.5,465.9,68.2z M423.4,57l31.3-10.2
		c-2.7-4.7-7.9-7.6-13.3-7.4C431.6,39.4,424.4,46.8,423.4,57z"/>
	<path class="st3" d="M259,140.9v24.2c0,5.7,3,8.9,8.5,8.9c2.8-0.1,5.6-0.7,8.2-1.7v16.1c-4.1,1.7-8.5,2.5-12.9,2.4
		c-15.3,0-23.1-9.1-23.1-23.4v-26.6h-7.8l0.1-15.6h7.6v-21.7h19.3v21.8h16.8v15.6L259,140.9L259,140.9z"/>
	<path class="st3" d="M336.9,166.7l5.5,14.2c-8.2,6.8-18.5,10.7-29.2,10.8c-20.5,0-35.7-14.9-35.7-34s14.9-34.1,34.7-34.1
		c16.9,0,30.6,11.1,32.3,30.6l-47,15.1c3.2,4.8,8.8,7.8,15.9,7.8C320.7,177,328.7,174,336.9,166.7z M294.4,155.5l31.3-10.2
		c-2.7-4.7-7.9-7.5-13.3-7.4C302.6,137.9,295.4,145.3,294.4,155.5L294.4,155.5z"/>
	<path class="st3" d="M347.1,157.5c0-19.3,15.6-34,35.4-34c5.8,0,11.6,1.2,17,3.5l-2.7,16.6c-4-2.3-8.5-3.6-13.2-3.7
		c-10.6,0-17.9,7.8-17.9,17.6s7.2,17.6,18,17.6c4.9-0.1,9.7-1.5,13.9-4l2.4,16.6c-5.4,2.6-11.4,4-17.4,4
		C362.5,191.6,347.1,176.7,347.1,157.5z"/>
	<path class="st3" d="M469,150.2v39.5h-19.4v-37.1c0-7.9-4.7-12.5-11.5-12.5c-7.2,0-12.3,5.2-12.3,13.2v36.4h-19.3v-86.2h19.3v28.3
		c4.5-5.2,11.2-8.2,19.1-8.2C460.1,123.6,469,134,469,150.2z"/>
</g>
</svg>
