<svg xmlns="http://www.w3.org/2000/svg" xmlns:xlink="http://www.w3.org/1999/xlink" width="146" height="152" viewBox="0 0 146 152">
  <defs>
    <clipPath id="clip-path">
      <rect id="Rectangle_2217" data-name="Rectangle 2217" width="146" height="152" fill="#fff"/>
    </clipPath>
  </defs>
  <g id="Mask_Group_29" data-name="Mask Group 29" clip-path="url(#clip-path)">
    <g id="Group_4217" data-name="Group 4217" transform="translate(2.028 3.06)">
      <ellipse id="Ellipse_9354" data-name="Ellipse 9354" cx="71" cy="71.5" rx="71" ry="71.5" transform="translate(-0.028 -0.06)" fill="#0d223f"/>
      <line id="Line_218" data-name="Line 218" x2="109.92" transform="translate(16.472 99.54)" fill="none" stroke="#029395" stroke-linecap="round" stroke-width="3"/>
    </g>
    <g id="Group_4232" data-name="Group 4232" transform="translate(16 45.539)">
      <g id="Group_4208" data-name="Group 4208" transform="translate(0 0)">
        <path id="Path_1247" data-name="Path 1247" d="M10.171,36.133A8.089,8.089,0,0,1,5.95,35.08a6.985,6.985,0,0,1-2.706-2.928A9.489,9.489,0,0,1,2.3,27.836a9.443,9.443,0,0,1,.952-4.342,7.071,7.071,0,0,1,2.712-2.923,8,8,0,0,1,4.185-1.053,8.283,8.283,0,0,1,3.664.765A6.136,6.136,0,0,1,16.3,22.43a6.339,6.339,0,0,1,1.01,3.248H13.127a3.3,3.3,0,0,0-.932-1.943A2.7,2.7,0,0,0,10.223,23a2.956,2.956,0,0,0-1.8.56,3.617,3.617,0,0,0-1.192,1.629,6.982,6.982,0,0,0-.427,2.588,7.212,7.212,0,0,0,.422,2.619,3.6,3.6,0,0,0,1.192,1.645,2.96,2.96,0,0,0,1.8.566,2.94,2.94,0,0,0,1.369-.314,2.676,2.676,0,0,0,1.01-.917,3.506,3.506,0,0,0,.526-1.451h4.185a6.626,6.626,0,0,1-.994,3.242,6.073,6.073,0,0,1-2.451,2.184A8.13,8.13,0,0,1,10.171,36.133Zm12.962-9.617v9.3H18.7V14.364h4.309v8.2h.187a4.579,4.579,0,0,1,1.749-2.237,5.313,5.313,0,0,1,3.029-.812,5.655,5.655,0,0,1,2.909.728,4.968,4.968,0,0,1,1.936,2.085,6.97,6.97,0,0,1,.682,3.242V35.818H29.066V26.369a3.275,3.275,0,0,0-.744-2.315,2.709,2.709,0,0,0-2.108-.828,3.215,3.215,0,0,0-1.6.388,2.7,2.7,0,0,0-1.083,1.126A3.839,3.839,0,0,0,23.132,26.516Zm19.624,9.617a8.089,8.089,0,0,1-4.19-1.042,7.026,7.026,0,0,1-2.722-2.912,9.4,9.4,0,0,1-.958-4.342,9.448,9.448,0,0,1,.958-4.363,7.026,7.026,0,0,1,2.722-2.912,8.942,8.942,0,0,1,8.38,0,7.026,7.026,0,0,1,2.722,2.912,9.448,9.448,0,0,1,.958,4.363,9.4,9.4,0,0,1-.958,4.342,7.026,7.026,0,0,1-2.722,2.912A8.089,8.089,0,0,1,42.756,36.133Zm.021-3.457a2.731,2.731,0,0,0,1.842-.634,3.9,3.9,0,0,0,1.119-1.734,8.44,8.44,0,0,0,0-5.008,3.938,3.938,0,0,0-1.119-1.739,2.717,2.717,0,0,0-1.842-.639,2.792,2.792,0,0,0-1.868.639A3.875,3.875,0,0,0,39.774,25.3a8.44,8.44,0,0,0,0,5.008,3.838,3.838,0,0,0,1.135,1.734A2.807,2.807,0,0,0,42.777,32.676Zm16.5,3.457a8.089,8.089,0,0,1-4.19-1.042,7.026,7.026,0,0,1-2.722-2.912,9.4,9.4,0,0,1-.958-4.342,9.448,9.448,0,0,1,.958-4.363,7.026,7.026,0,0,1,2.722-2.912,8.942,8.942,0,0,1,8.38,0,7.026,7.026,0,0,1,2.722,2.912,9.448,9.448,0,0,1,.958,4.363,9.4,9.4,0,0,1-.958,4.342,7.026,7.026,0,0,1-2.722,2.912A8.089,8.089,0,0,1,59.278,36.133Zm.021-3.457a2.731,2.731,0,0,0,1.842-.634,3.9,3.9,0,0,0,1.119-1.734,8.439,8.439,0,0,0,0-5.008,3.938,3.938,0,0,0-1.119-1.739,2.717,2.717,0,0,0-1.842-.639,2.792,2.792,0,0,0-1.868.639A3.874,3.874,0,0,0,56.3,25.3a8.44,8.44,0,0,0,0,5.008,3.838,3.838,0,0,0,1.135,1.734A2.807,2.807,0,0,0,59.3,32.676Zm22.58-8.36-4.06.251a2.154,2.154,0,0,0-.448-.948,2.459,2.459,0,0,0-.9-.681,3.149,3.149,0,0,0-1.327-.257,3.263,3.263,0,0,0-1.738.435,1.313,1.313,0,0,0-.708,1.158,1.243,1.243,0,0,0,.458.974,3.623,3.623,0,0,0,1.572.639l2.894.587a7.153,7.153,0,0,1,3.477,1.55,3.661,3.661,0,0,1,1.145,2.808,4.417,4.417,0,0,1-.921,2.776A6.019,6.019,0,0,1,78.8,35.467a9.51,9.51,0,0,1-3.68.665A8.562,8.562,0,0,1,70.069,34.8a5.166,5.166,0,0,1-2.2-3.64l4.362-.23a2.237,2.237,0,0,0,.958,1.482,4.04,4.04,0,0,0,3.825.052,1.384,1.384,0,0,0,.723-1.179,1.249,1.249,0,0,0-.51-1,3.7,3.7,0,0,0-1.541-.6l-2.769-.555a6.583,6.583,0,0,1-3.482-1.634,4.059,4.059,0,0,1-1.14-2.965,4.336,4.336,0,0,1,.838-2.671A5.32,5.32,0,0,1,71.5,20.125a9.627,9.627,0,0,1,3.576-.608,7.874,7.874,0,0,1,4.773,1.289A4.988,4.988,0,0,1,81.879,24.316Z" transform="translate(-2.301 -14.364)" fill="#fff"/>
        <g id="Group_3990" data-name="Group 3990" transform="translate(80.688 5.126)">
          <path id="Path_1248" data-name="Path 1248" d="M345.06,50.021l1.33,3.417a11.026,11.026,0,0,1-6.994,2.6,8.221,8.221,0,1,1-.243-16.434c4.04,0,7.334,2.665,7.738,7.38l-11.269,3.656a4.405,4.405,0,0,0,3.8,1.88A8.4,8.4,0,0,0,345.06,50.021Zm-10.185-2.7,7.5-2.46a3.551,3.551,0,0,0-3.192-1.776A4.373,4.373,0,0,0,334.876,47.321Z" transform="translate(-330.84 -39.6)" fill="#fff"/>
        </g>
      </g>
      <g id="Group_4209" data-name="Group 4209" transform="translate(0.489 25.792)">
        <g id="Layer_1" data-name="Layer 1" transform="translate(0 0)">
          <path id="Path_1227" data-name="Path 1227" d="M22.648,45.782V55.1H18.241V46.336c0-1.7-.939-2.642-2.267-2.642-1.426,0-2.431,1.076-2.431,2.8V55.1H9.1V46.336c0-1.7-.907-2.642-2.236-2.642a2.507,2.507,0,0,0-2.462,2.8V55.1H0V40.531l4.277-.521v1.76a5.119,5.119,0,0,1,4.114-1.89,4.629,4.629,0,0,1,4.115,2.152,5.869,5.869,0,0,1,4.763-2.152C20.7,39.88,22.648,42.194,22.648,45.782Z" transform="translate(0 -35.249)" fill="#fff"/>
          <path id="Path_1228" data-name="Path 1228" d="M225.862,19.855,221.2,12.978v6.877H216.79V0H221.2V11.379l4.5-6.358h5.088l-5.345,7.108,5.637,7.726Z" transform="translate(-191.778 0)" fill="#fff"/>
          <path id="Path_1229" data-name="Path 1229" d="M344.41,49.545l1.269,3.26a10.522,10.522,0,0,1-6.674,2.478,7.845,7.845,0,1,1-.232-15.683c3.856,0,7,2.543,7.384,7.042L335.4,50.131a4.2,4.2,0,0,0,3.63,1.794A8.021,8.021,0,0,0,344.41,49.545Zm-9.719-2.577,7.16-2.348a3.389,3.389,0,0,0-3.046-1.7A4.173,4.173,0,0,0,334.691,46.968Z" transform="translate(-292.669 -35.002)" fill="#fff"/>
          <path id="Path_1230" data-name="Path 1230" d="M517.558,8.609v5.573a1.809,1.809,0,0,0,1.944,2.054,5.828,5.828,0,0,0,1.878-.391V19.56a7.561,7.561,0,0,1-2.948.554c-3.5,0-5.281-2.09-5.281-5.381V8.609H511.37l.031-3.587h1.75V0h4.406V5.022h3.822V8.609Z" transform="translate(-452.371 0)" fill="#fff"/>
          <path id="Path_1231" data-name="Path 1231" d="M615.356,49.545l1.263,3.26a10.522,10.522,0,0,1-6.674,2.478,7.845,7.845,0,1,1-.227-15.683c3.856,0,7,2.543,7.384,7.042l-10.753,3.489a4.2,4.2,0,0,0,3.629,1.794A8.025,8.025,0,0,0,615.356,49.545Zm-9.72-2.577,7.16-2.348a3.388,3.388,0,0,0-3.046-1.7A4.175,4.175,0,0,0,605.636,46.968Z" transform="translate(-532.35 -35.002)" fill="#fff"/>
          <path id="Path_1232" data-name="Path 1232" d="M739.66,47.435a7.856,7.856,0,0,1,8.1-7.825,9.876,9.876,0,0,1,3.887.813l-.615,3.814a6.42,6.42,0,0,0-3.014-.848,4.044,4.044,0,1,0,.032,8.087,6.539,6.539,0,0,0,3.175-.914l.552,3.815a9.182,9.182,0,0,1-3.985.913A7.87,7.87,0,0,1,739.66,47.435Z" transform="translate(-654.322 -35.011)" fill="#fff"/>
          <path id="Path_1233" data-name="Path 1233" d="M871.888,10.76v9.1h-4.435v-8.54a2.56,2.56,0,0,0-2.625-2.87,2.787,2.787,0,0,0-2.819,3.033v8.378H857.6V0h4.406V6.521a5.609,5.609,0,0,1,4.374-1.89C869.847,4.631,871.888,7.011,871.888,10.76Z" transform="translate(-758.655 0)" fill="#fff"/>
        </g>
      </g>
    </g>
  </g>
</svg>
