<?xml version="1.0" standalone="no"?>
<!DOCTYPE svg PUBLIC "-//W3C//DTD SVG 20010904//EN"
 "http://www.w3.org/TR/2001/REC-SVG-20010904/DTD/svg10.dtd">
<svg version="1.0" xmlns="http://www.w3.org/2000/svg"
 width="608.000000pt" height="608.000000pt" viewBox="0 0 608.000000 608.000000"
 preserveAspectRatio="xMidYMid meet">
<metadata>
Created by potrace 1.14, written by Peter Selinger 2001-2017
</metadata>
<g transform="translate(0.000000,608.000000) scale(0.100000,-0.100000)"
fill="#000000" stroke="none">
<path d="M2748 5944 c-165 -19 -220 -28 -357 -60 -36 -9 -70 -17 -76 -18 -33
-8 -136 -40 -170 -53 -22 -8 -47 -16 -55 -18 -53 -11 -334 -140 -445 -204 -59
-33 -285 -180 -295 -191 -3 -3 -36 -30 -75 -61 -38 -31 -85 -69 -104 -85 -37
-32 -198 -192 -247 -245 -48 -54 -184 -226 -184 -233 0 -4 -6 -14 -12 -21 -80
-89 -264 -426 -328 -600 -12 -33 -26 -65 -32 -72 -6 -7 -8 -13 -5 -13 3 0 -3
-26 -14 -57 -55 -158 -107 -384 -124 -538 -3 -28 -8 -66 -10 -85 -3 -19 -8
-111 -11 -205 -6 -194 -6 -173 0 -245 3 -30 8 -84 10 -120 6 -71 10 -102 28
-200 7 -36 12 -69 13 -75 2 -24 19 -97 42 -180 13 -49 26 -97 28 -105 2 -8 17
-55 35 -105 44 -128 50 -142 128 -305 58 -121 132 -253 176 -315 11 -16 26
-40 33 -52 6 -12 16 -28 22 -35 6 -7 48 -60 93 -118 170 -218 350 -392 579
-558 47 -34 91 -62 97 -62 7 0 12 -4 12 -9 0 -6 11 -16 25 -23 86 -46 131 -71
135 -78 7 -9 216 -111 300 -145 143 -59 357 -125 500 -154 95 -19 104 -21 140
-26 19 -3 53 -7 75 -10 22 -3 56 -8 75 -10 19 -3 106 -7 192 -10 86 -2 160 -5
165 -6 4 -1 10 0 13 1 3 1 34 3 70 5 77 4 186 13 219 20 13 2 42 7 65 9 22 3
52 8 66 11 14 2 50 10 80 16 30 6 75 16 100 24 25 7 50 13 55 14 19 3 90 22
105 28 8 4 17 7 20 8 32 8 157 53 197 71 28 13 55 24 58 24 3 0 33 13 66 29
32 17 59 27 59 23 0 -4 4 -2 8 4 4 6 32 24 62 39 30 14 64 32 75 38 11 7 47
27 80 46 33 19 62 37 65 41 3 3 19 14 35 24 35 22 208 148 215 157 3 3 34 30
70 60 64 53 250 235 250 245 0 3 10 15 23 27 40 40 143 170 198 252 29 44 56
82 59 85 30 27 188 330 245 470 54 133 122 345 140 442 2 11 6 27 9 36 3 9 7
34 11 56 3 21 7 42 10 46 2 4 7 33 11 65 3 32 8 67 10 78 25 133 25 620 -1
740 -2 12 -7 45 -10 72 -6 55 -46 238 -71 325 -8 30 -16 60 -18 67 -1 7 -5 16
-9 19 -4 4 -7 15 -7 24 0 10 -9 42 -21 71 -12 30 -32 83 -46 119 -216 552
-631 1046 -1146 1366 -170 106 -408 218 -582 274 -38 12 -77 25 -85 28 -8 3
-20 6 -26 7 -6 2 -36 10 -66 19 -51 14 -177 43 -223 51 -11 2 -36 6 -55 9
-139 22 -222 28 -415 31 -130 1 -264 -3 -327 -11z"/>
</g>
</svg>
